<svg xmlns="http://www.w3.org/2000/svg" width="32" height="32" viewBox="0 0 32 32" fill="none"><g clip-path="url(#clip0_18033_65)"><path d="M0 16C0 7.16344 7.16344 0 16 0C24.8366 0 32 7.16344 32 16C32 24.8366 24.8366 32 16 32H0V16Z" fill="url(#paint0_linear_18033_65)"></path><mask id="mask0_18033_65" style="mask-type:luminance" maskUnits="userSpaceOnUse" x="8" y="8" width="17" height="17"><path d="M24.4458 8H8V24.4458H24.4458V8Z" fill="white"></path><path fill-rule="evenodd" clip-rule="evenodd" d="M16.4068 13.6783C13.6798 11.2251 11.1983 9.85094 10.523 10.5196C9.84513 11.1907 11.2069 13.7019 13.6499 16.4654C11.2364 19.2079 9.89627 21.6913 10.5698 22.3581C11.2412 23.0229 13.6982 21.6683 16.4068 19.2414C19.1153 21.6683 21.5722 23.0229 22.2438 22.3581C22.9173 21.6913 21.5772 19.2079 19.1636 16.4654C21.6066 13.7019 22.9684 11.1907 22.2905 10.5196C21.6151 9.85094 19.1337 11.2251 16.4068 13.6783Z" fill="black"></path></mask><g mask="url(#mask0_18033_65)"><path d="M16.4069 13.6758L15.2017 15.0155L16.4069 16.0998L17.6121 15.0155L16.4069 13.6758ZM13.65 16.4629L15.0028 17.6534L16.0528 16.4602L15.0002 15.2694L13.65 16.4629ZM16.4069 19.2389L17.6095 17.8968L16.4069 16.8193L15.2043 17.8968L16.4069 19.2389ZM19.1638 16.4629L17.8136 15.2694L16.761 16.4602L17.811 17.6534L19.1638 16.4629ZM17.6121 12.3361C16.1865 11.0537 14.7673 9.99872 13.5542 9.34136C12.9591 9.01894 12.3179 8.73913 11.6931 8.61571C11.1481 8.50802 10.0788 8.42117 9.25525 9.23649L11.791 11.7977C11.3051 12.2787 10.7993 12.1129 10.9947 12.1515C11.1103 12.1743 11.3865 12.266 11.8371 12.5101C12.7154 12.9861 13.9002 13.8448 15.2017 15.0155L17.6121 12.3361ZM9.25525 9.23649C8.42883 10.0547 8.50822 11.1292 8.61152 11.6754C8.73016 12.303 9.00551 12.9492 9.32456 13.5502C9.9748 14.7753 11.0229 16.2119 12.2999 17.6564L15.0002 15.2694C13.8342 13.9504 12.9799 12.7497 12.508 11.8605C12.2659 11.4044 12.1752 11.1242 12.1528 11.0059C12.1151 10.8061 12.2785 11.3151 11.791 11.7977L9.25525 9.23649ZM11.8377 21.075C12.3224 21.5549 12.1635 22.0612 12.1994 21.8683C12.2205 21.7542 12.3082 21.4794 12.5461 21.0287C13.0096 20.1502 13.8511 18.9621 15.0028 17.6534L12.2973 15.2723C11.0355 16.7062 10.0001 18.131 9.35855 19.3466C9.04389 19.9429 8.77198 20.5853 8.65592 21.21C8.55451 21.756 8.4806 22.8229 9.30209 23.6362L11.8377 21.075ZM15.2043 17.8968C13.9119 19.0548 12.7381 19.9021 11.8694 20.3704C11.4236 20.6107 11.152 20.6998 11.0402 20.7215C10.8508 20.7583 11.3544 20.5965 11.8377 21.075L9.30209 23.6362C10.1212 24.4471 11.1837 24.3652 11.7285 24.2592C12.3508 24.1381 12.9887 23.8614 13.5796 23.5428C14.7844 22.8934 16.1933 21.8499 17.6095 20.581L15.2043 17.8968ZM15.2043 20.581C16.6205 21.8499 18.0294 22.8934 19.2342 23.5428C19.8251 23.8614 20.4629 24.1381 21.0853 24.2592C21.6301 24.3652 22.6926 24.4471 23.5117 23.6362L20.976 21.075C21.4594 20.5965 21.963 20.7583 21.7736 20.7215C21.6618 20.6998 21.3901 20.6107 20.9444 20.3704C20.0756 19.9021 18.9018 19.0548 17.6095 17.8968L15.2043 20.581ZM23.5117 23.6362C24.3331 22.8229 24.2593 21.756 24.1579 21.21C24.0418 20.5853 23.7699 19.9429 23.4552 19.3466C22.8137 18.131 21.7783 16.7062 20.5165 15.2723L17.811 17.6534C18.9627 18.9621 19.8042 20.1502 20.2677 21.0287C20.5056 21.4794 20.5932 21.7542 20.6144 21.8683C20.6503 22.0612 20.4913 21.5549 20.976 21.075L23.5117 23.6362ZM21.0228 11.7977C20.5353 11.3151 20.6987 10.8061 20.661 11.0059C20.6386 11.1242 20.5479 11.4044 20.3058 11.8605C19.8339 12.7497 18.9796 13.9504 17.8136 15.2694L20.5139 17.6564C21.7909 16.2119 22.839 14.7753 23.4892 13.5502C23.8082 12.9492 24.0836 12.303 24.2023 11.6754C24.3055 11.1292 24.3849 10.0547 23.5585 9.23649L21.0228 11.7977ZM17.6121 15.0155C18.9136 13.8448 20.0984 12.9861 20.9766 12.5101C21.4272 12.266 21.7035 12.1743 21.819 12.1515C22.0145 12.1129 21.5087 12.2787 21.0228 11.7977L23.5585 9.23649C22.735 8.42117 21.6657 8.50802 21.1207 8.61571C20.4959 8.73913 19.8547 9.01894 19.2596 9.34136C18.0465 9.99872 16.6272 11.0537 15.2017 12.3361L17.6121 15.0155Z" fill="url(#paint1_linear_18033_65)"></path></g><mask id="mask1_18033_65" style="mask-type:luminance" maskUnits="userSpaceOnUse" x="14" y="14" width="5" height="5"><path d="M18.7668 14.0663H14.068V18.765H18.7668V14.0663Z" fill="white"></path><path fill-rule="evenodd" clip-rule="evenodd" d="M16.4329 15.7181C15.7209 15.0775 15.073 14.7189 14.8967 14.8934C14.7197 15.0687 15.0751 15.7243 15.7129 16.4458C15.0823 17.1623 14.732 17.8112 14.908 17.9854C15.0834 18.1591 15.7254 17.8051 16.4329 17.171C17.1405 17.8051 17.7824 18.1591 17.9578 17.9854C18.1338 17.8112 17.7836 17.1623 17.1529 16.4458C17.7907 15.7243 18.1462 15.0687 17.9692 14.8934C17.7928 14.7189 17.145 15.0775 16.4329 15.7181Z" fill="black"></path></mask><g mask="url(#mask1_18033_65)"><path d="M16.4327 15.7175L16.1753 16.0037L16.4327 16.2354L16.6902 16.0037L16.4327 15.7175ZM15.7127 16.4452L16.0017 16.6997L16.2262 16.4448L16.0012 16.1902L15.7127 16.4452ZM16.4327 17.1704L16.6897 16.8836L16.4327 16.6534L16.1758 16.8836L16.4327 17.1704ZM17.1528 16.4452L16.8642 16.1902L16.6393 16.4448L16.8638 16.6997L17.1528 16.4452ZM16.6902 15.4312C16.3209 15.099 15.9559 14.8282 15.6471 14.6609C15.4952 14.5786 15.3364 14.51 15.1854 14.4802C15.0513 14.4537 14.8095 14.4371 14.6256 14.6192L15.1674 15.1665C15.0716 15.2613 14.9769 15.224 15.0362 15.2358C15.0785 15.2441 15.1592 15.2725 15.2803 15.338C15.5176 15.4666 15.8325 15.6954 16.1753 16.0037L16.6902 15.4312ZM14.6256 14.6192C14.441 14.802 14.4559 15.0449 14.4813 15.1794C14.51 15.3311 14.5775 15.4912 14.6589 15.6447C14.8244 15.9566 15.0934 16.326 15.4242 16.7003L16.0012 16.1902C15.6942 15.8429 15.4666 15.5238 15.3392 15.2837C15.2742 15.1612 15.2461 15.0794 15.238 15.0364C15.2266 14.9761 15.2634 15.0714 15.1674 15.1665L14.6256 14.6192ZM15.1787 17.7112C15.2743 17.8058 15.2382 17.9008 15.2492 17.8419C15.257 17.8 15.2843 17.7194 15.3483 17.5982C15.4736 17.3606 15.6982 17.0446 16.0017 16.6997L15.4237 16.1909C15.0966 16.5625 14.8307 16.9291 14.6673 17.2387C14.5868 17.391 14.5202 17.5501 14.4921 17.7011C14.4672 17.8354 14.4533 18.0767 14.6369 18.2584L15.1787 17.7112ZM16.1758 16.8836C15.8352 17.1889 15.5229 17.4149 15.288 17.5416C15.1681 17.6063 15.0883 17.634 15.047 17.6421C14.989 17.6534 15.0834 17.6168 15.1787 17.7112L14.6369 18.2584C14.8199 18.4396 15.0603 18.4241 15.1941 18.398C15.3446 18.3687 15.5025 18.3009 15.6534 18.2194C15.9602 18.054 16.3227 17.786 16.6897 17.4571L16.1758 16.8836ZM16.1758 17.4571C16.5428 17.786 16.9053 18.054 17.212 18.2194C17.3629 18.3009 17.5209 18.3687 17.6713 18.398C17.8052 18.4241 18.0455 18.4396 18.2285 18.2584L17.6868 17.7112C17.7821 17.6168 17.8764 17.6534 17.8185 17.6421C17.7771 17.634 17.6974 17.6063 17.5775 17.5416C17.3426 17.4149 17.0303 17.1889 16.6897 16.8836L16.1758 17.4571ZM18.2285 18.2584C18.4121 18.0767 18.3983 17.8354 18.3734 17.7011C18.3453 17.5501 18.2786 17.391 18.1982 17.2387C18.0348 16.9291 17.7689 16.5625 17.4418 16.1909L16.8638 16.6997C17.1673 17.0446 17.3918 17.3606 17.5171 17.5982C17.5811 17.7194 17.6085 17.8 17.6163 17.8419C17.6272 17.9008 17.5912 17.8058 17.6868 17.7112L18.2285 18.2584ZM17.6981 15.1665C17.602 15.0714 17.6388 14.9761 17.6275 15.0364C17.6193 15.0794 17.5913 15.1612 17.5263 15.2837C17.3989 15.5238 17.1713 15.8429 16.8642 16.1902L17.4413 16.7003C17.772 16.326 18.0411 15.9566 18.2065 15.6447C18.288 15.4912 18.3555 15.3311 18.3842 15.1794C18.4096 15.0449 18.4245 14.802 18.2399 14.6192L17.6981 15.1665ZM16.6902 16.0037C17.033 15.6954 17.3479 15.4666 17.5852 15.338C17.7063 15.2725 17.787 15.2441 17.8293 15.2358C17.8886 15.224 17.7939 15.2613 17.6981 15.1665L18.2399 14.6192C18.0559 14.4371 17.8142 14.4537 17.6801 14.4802C17.5291 14.51 17.3703 14.5786 17.2183 14.6609C16.9095 14.8282 16.5445 15.099 16.1753 15.4312L16.6902 16.0037Z" fill="url(#paint2_linear_18033_65)"></path></g></g><defs><linearGradient id="paint0_linear_18033_65" x1="16" y1="0" x2="16" y2="32" gradientUnits="userSpaceOnUse"><stop stop-color="#1A084C"></stop><stop offset="1" stop-color="#200A5B"></stop></linearGradient><linearGradient id="paint1_linear_18033_65" x1="16.4069" y1="10.3485" x2="16.4069" y2="22.5242" gradientUnits="userSpaceOnUse"><stop stop-color="#C5BEDA"></stop><stop offset="1" stop-color="#F4F4F4"></stop></linearGradient><linearGradient id="paint2_linear_18033_65" x1="16.4327" y1="14.8488" x2="16.4327" y2="18.0289" gradientUnits="userSpaceOnUse"><stop stop-color="#C5BEDA"></stop><stop offset="1" stop-color="#F4F4F4"></stop></linearGradient><clipPath id="clip0_18033_65"><path d="M0 16C0 7.16344 7.16344 0 16 0C24.8366 0 32 7.16344 32 16C32 24.8366 24.8366 32 16 32H0V16Z" fill="white"></path></clipPath></defs></svg>